<?xml version="1.0" encoding="UTF-8" standalone="no"?>
<!-- Created with Inkscape (http://www.inkscape.org/) -->

<svg
   xmlns:dc="http://purl.org/dc/elements/1.1/"
   xmlns:cc="http://creativecommons.org/ns#"
   xmlns:rdf="http://www.w3.org/1999/02/22-rdf-syntax-ns#"
   xmlns:svg="http://www.w3.org/2000/svg"
   xmlns="http://www.w3.org/2000/svg"
   xmlns:sodipodi="http://sodipodi.sourceforge.net/DTD/sodipodi-0.dtd"
   xmlns:inkscape="http://www.inkscape.org/namespaces/inkscape"
   width="163.2379mm"
   height="35.584476mm"
   viewBox="0 0 163.2379 35.584476"
   version="1.1"
   id="svg8"
   inkscape:version="0.92.2 (5c3e80d, 2017-08-06)"
   sodipodi:docname="logohammer.svg">
  <defs
     id="defs2" />
  <sodipodi:namedview
     id="base"
     pagecolor="#ffffff"
     bordercolor="#666666"
     borderopacity="1.0"
     inkscape:pageopacity="0.0"
     inkscape:pageshadow="2"
     inkscape:zoom="0.66"
     inkscape:cx="352.64766"
     inkscape:cy="-185.44022"
     inkscape:document-units="mm"
     inkscape:current-layer="layer1"
     showgrid="false"
     inkscape:window-width="1366"
     inkscape:window-height="705"
     inkscape:window-x="-8"
     inkscape:window-y="-8"
     inkscape:window-maximized="1" />
  <metadata
     id="metadata5">
    <rdf:RDF>
      <cc:Work
         rdf:about="">
        <dc:format>image/svg+xml</dc:format>
        <dc:type
           rdf:resource="http://purl.org/dc/dcmitype/StillImage" />
        <dc:title></dc:title>
      </cc:Work>
    </rdf:RDF>
  </metadata>
  <g
     inkscape:label="Layer 1"
     inkscape:groupmode="layer"
     id="layer1"
     transform="translate(0,-0.0430529)">
    <g
       id="g821"
       transform="matrix(0.06798651,0,0,0.06798651,-0.51970905,0.15058902)"
       style="fill:#f8f8ff;fill-opacity:1;stroke:#000000;stroke-width:7.78340673;stroke-miterlimit:4;stroke-dasharray:none;stroke-opacity:1">
      <path
         id="path815"
         d="m 11.536,183.962 c 1.525,-3.99 2.595,-8.245 4.67,-11.93 4.785,-8.495 13.54,-8.98 17.185,-0.19 3.38,8.145 8.415,8.86 15.63,8.38 7.44,-0.495 14.94,-0.11 22.795,-0.11 0,8.615 0,16.85 0,25.84 -5.95,0 -11.865,0 -17.78,0 -3.995,0 -8.01,0.215 -11.985,-0.06 -3.945,-0.275 -6.47,0.6 -8.69,4.47 -4.555,7.945 -12.145,7.83 -16.82,-0.08 -2.23,-3.775 -3.375,-8.19 -5.005,-12.31 0,-4.67 0,-9.34 0,-14.01 z"
         inkscape:connector-curvature="0"
         style="clip-rule:evenodd;fill:#f8f8ff;fill-opacity:1;fill-rule:evenodd;stroke:#000000;stroke-width:7.78340673;stroke-miterlimit:4;stroke-dasharray:none;stroke-opacity:1" />
      <path
         id="path817"
         d="m 434.658,46.197 c -0.27,-10.085 -5.21,-17.9 -14.47,-22.28 -7.65,-3.625 -15.41,-7.21 -23.44,-9.85 -33.1,-10.885 -67.41,-11.94 -101.817,-11.735 -26.335,0.16 -52.67,0.825 -79.01,0.9 -30.485,0.08 -61.005,-1.17 -91.44,-0.025 -17.5,0.66 -34.95,4.475 -52.26,7.74 -11.155,2.105 -17.935,9.84 -18.75,21.225 -1.6,22.42 -2.885,44.885 -3.37,67.35 -0.095,4.575 3.9,9.245 6.7,15.385 3.925,-5.41 8.144,-9.38 11.398,-13.86 2.78,9.74 1.801,9.74 12.801,7.82 v 33.965 c 10,-2.055 14.444,-3.9 22.134,-5.8 -0.975,-4.555 -2.508,-8.565 -3.458,-12.99 4.22,-0.615 7.774,-1.185 12.019,-1.805 0.945,4.27 1.661,8.25 2.591,12.445 5.93,-1.085 11.363,-2.095 17.068,-3.14 0.345,-3.995 -1.22,-9.28 5.835,-8.31 0.265,2.235 0.514,4.5 0.829,7.165 4.345,-0.655 8.386,-1.26 12.871,-1.94 -0.79,-4.09 -1.516,-7.775 -2.291,-11.79 1.935,-0.515 3.564,-0.95 5.31,-1.415 1.16,4.51 2.132,8.32 3.152,12.285 3.725,-0.47 7.015,-1.165 10.315,-1.24 5.365,-0.12 9.65,-0.885 6.975,-8.295 4.65,-0.985 8.785,-1.86 13.25,-2.805 0.165,3.08 0.305,5.67 0.47,8.72 4.825,-0.485 9.335,-0.046 14.025,-0.516 C 201.73,119.421 201.415,113 201.06,113 h 6.98 c 0.585,0 1.135,6.131 1.745,9.931 6.83,-0.479 13.365,-1.995 19.945,-2.455 0.335,-4.13 0.625,-7.476 0.925,-12.476 h 6.21 c 0.33,5 0.63,10 0.9,10 H 249.9 c -0.725,-5 -1.365,-8.765 -2.005,-12.935 6.5,2.51 3.315,12.935 6.03,12.935 h 25.985 c 0.295,-5 0.574,-10.984 0.88,-17.159 2.85,0.46 5.245,1.261 8.015,1.701 -0.375,5.78 -0.725,11.416 -1.11,17.335 7.28,0.335 14.146,0.755 21.115,1.07 0.92,-4.485 1.705,-8.28 2.55,-12.41 2.655,0.3 4.878,0.578 7.408,0.868 -0.79,4.34 -1.471,8.153 -2.141,11.868 16.61,1.905 32.591,3.742 48.57,5.577 -12.92,0.455 -25.7,-0.384 -38.51,-0.899 -10.57,-0.43 -10.57,0.969 -13.638,10.875 -0.095,0.31 -0.335,-2.826 -0.57,2.174 h -5.949 c 0.465,-5 0.885,-10 1.35,-15 h -20.57 c -0.435,5 -0.845,10 -1.26,15 H 280 v -15 h -25.634 c 0.325,5 0.675,5.456 0.82,7.596 0.125,1.91 0.025,4.176 0.025,6.086 -0.485,0.06 -0.97,0.285 -1.45,0.345 -0.38,-1.125 -0.89,-2.135 -1.115,-3.285 -2.015,-10.2 -2,-10.167 -12.465,-9.192 -0.765,0.07 -1.51,0.329 -2.185,0.469 0,3.85 0.945,7.742 -0.3,10.707 -0.99,2.355 -4.817,3.593 -7.296,5.328 -0.41,-0.42 -1.399,-0.831 -1.399,-1.246 v -15 c -5,0.47 -12.416,0.905 -18.73,1.36 0.694,5.815 1.397,11.02 2.047,16.365 -2.61,0.55 -4.616,0.985 -6.98,1.485 -0.87,-5.96 -1.363,-11.475 -2.233,-17.395 -5.25,0.48 -10.103,0.915 -15.103,1.41 v 21.765 c -5,-0.495 -7.511,-0.9 -10.751,-1.305 -0.54,-6.57 -1.193,-12.665 -1.733,-19.175 -5.775,0.72 -11.235,1.39 -17.24,2.14 1.205,5.585 2.274,10.705 3.434,16.115 -1.875,0.67 -3.516,1.245 -5.436,1.935 -1.405,-5.875 -0.894,-11.165 -2.298,-17.02 -4.765,0.765 -11.976,1.49 -11.976,2.21 v 17.24 c -5,0.13 -5.276,0.255 -7.246,0.4 -0.435,-5.655 -1.738,-10.885 -2.163,-16.41 -5.81,1.27 -11.406,2.4 -16.65,3.55 0.29,3.865 1.723,8.245 0.208,10.44 -1.63,2.37 -6.344,2.695 -9.793,3.965 -1.075,-4.115 -2.002,-7.46 -3.063,-11.515 -7.63,2.38 -14.693,4.39 -21.553,6.88 -1.26,0.46 -2.612,2.89 -2.578,4.38 0.55,22.83 1.115,45.665 2.16,68.48 0.28,6.2 -0.915,10.655 -5.605,15.29 -11.86,11.715 -17.482,25.815 -12.353,42.715 4.925,16.225 9.95,32.42 14.775,48.675 1.67,5.62 4.69,9.965 9.22,13.774 6.1,5.141 11.825,10.726 17.615,16.21 0.105,8.216 4.19,16.15 8.04,23.181 1.455,2.66 3.045,5.274 4.645,7.89 -3.265,14.271 -6.28,28.595 -10.06,42.72 -2.995,11.19 0.125,20.091 6.715,28.79 11.51,15.195 25.965,26.811 42.825,35.33 20.865,10.545 42.535,17.686 66.555,16.5 18.125,-0.895 36.335,-0.165 54.51,-0.189 1.825,0 3.7,0.045 5.47,-0.315 19.395,-3.965 37.862,-10.465 54.782,-20.875 15.681,-9.635 29.17,-21.585 38.7,-37.6 3.021,-5.056 4.32,-10.19 2.92,-16.19 -2.93,-12.569 -5.63,-25.194 -8.43,-37.795 4.58,-14.47 9.13,-28.905 11.27,-43.975 6.29,-6.035 12.37,-11.88 18.41,-17.771 1.03,-1.005 1.9,-2.375 2.34,-3.739 5.62,-17.405 11.32,-34.79 16.66,-52.285 4.42,-14.46 2.7,-28.015 -7.33,-39.916 -2.26,-2.67 -4.39,-5.515 -7.01,-7.785 -2.52,-2.18 -3.34,-4.495 -3.23,-7.765 1.061,-30.82 1.87,-61.655 3.011,-92.475 0.33,-8.915 -1.931,-18.35 5.18,-26.19 2.41,-2.665 3.39,-6.645 5.16,-10.315 1,2.44 1.42,4.775 2.74,6.345 1.71,2.025 4.13,4.73 6.26,4.755 2.16,0.02 5.229,-2.43 6.32,-4.59 1.819,-3.61 3.25,-7.84 3.34,-11.835 0.319,-15.821 0.33,-31.661 -0.111,-47.481 z M 150.941,289.782 c -5.705,-18.19 -0.885,-34.365 12.23,-48.791 11.205,11.25 21.89,21.985 32.91,33.05 -8.315,3.56 -12.65,9.47 -10.355,18.695 1.425,5.75 6.69,9.71 12.84,10.12 6.67,0.449 11.91,-3.33 15.07,-10.971 4.62,4.785 9.2,9.53 14.16,14.665 -10.86,11.181 -24.725,15.71 -40.285,13.681 -18.255,-2.374 -31.04,-12.819 -36.57,-30.449 z M 284.831,467 c -0.32,-5 -0.365,-7.988 -1.05,-11.338 -0.891,-4.371 -4.7,-7.561 -8.771,-6.96 -4.325,0.64 -4.195,3.84 -4.365,6.984 -0.535,10.011 -0.505,9.923 -10.68,10.103 -6.145,0.105 -12.29,-0.052 -19.14,-0.052 0,-3.59 0.015,-7.21 -0.005,-10.795 -0.03,-5.295 -1.655,-6.853 -6.995,-6.567 -1.49,0.08 -2.97,0.483 -4.46,0.538 -3.84,0.135 -4.81,2.365 -4.325,5.705 0.26,1.81 0.63,4.203 0.915,6.014 0.275,1.79 0.51,6.368 0.815,6.368 h -11.005 c 0.275,-5 0.525,-5.998 0.82,-8.689 0.785,-7.209 -3.275,-11.289 -10.49,-10.108 -4.11,0.67 -4.19,3.863 -4.095,6.918 0.12,3.62 0.505,6.88 0.845,11.88 h -45.32 c -1.25,-26 28.075,-59.559 52.49,-61.52 0.96,4.141 1.775,8.241 2.935,12.361 0.95,3.385 2.925,5.84 6.83,6.315 5.975,0.72 7.945,-0.828 8.225,-6.918 0.12,-2.655 -0.14,-6.053 -0.175,-8.718 -0.035,-2.46 -0.005,-3.521 -0.005,-8.521 h 14.255 c -0.975,5 -1.995,11.251 -2.86,16.486 -0.735,4.46 0.6,7.905 5.69,8.345 1.81,0.16 3.585,0.96 5.395,1.126 7.89,0.734 10.365,-1.845 9.07,-9.765 -0.74,-4.53 -1.681,-8.988 -2.67,-14.264 3.44,0.46 6,0.827 8.895,1.217 0,5.4 -0.335,10.705 0.09,15.94 0.5,6.09 2.78,7.596 9.025,6.966 6.845,-0.689 9.71,-3.439 9.16,-9.205 -0.29,-3.08 -1.08,-6.114 -1.66,-9.25 10.055,1.78 11.475,3.88 10.195,13.056 -0.25,1.774 0.984,4.76 2.43,5.55 2.655,1.455 5.955,2.194 9.03,2.325 4.585,0.194 4.875,-2.396 5.085,-6.576 14.264,11.461 21.243,24.049 23.753,45.049 z m 39.857,-160.333 c -18.518,18.95 -49.718,18.76 -67.272,-0.365 4.71,-4.91 9.175,-9.564 13.984,-14.585 3.525,8.045 9,12.525 17.931,10.705 5.675,-1.155 10.285,-6.385 10.955,-12.189 0.805,-6.936 -2.471,-11.825 -10.521,-15.94 10.71,-10.86 21.48,-21.785 32.253,-32.71 18.161,15.204 19.51,47.839 2.67,65.084 z m 47.94,-133.74 c 1.261,8.335 2.49,16.47 3.721,24.605 -0.391,0.075 -0.771,0.15 -1.16,0.225 -2.05,-7.575 -4.11,-15.15 -6.3,-23.25 -4.801,2.04 -8.87,3.775 -12.931,5.51 1.391,8.795 2.75,17.42 4.12,26.05 l -1.149,0.25 c -2.21,-8.02 -4.4,-16.035 -6.62,-24.1 -1.16,0.14 -1.66,0.09 -2.061,0.265 -3.779,1.69 -9.06,2.485 -10.85,5.41 -1.53,2.5 1.05,7.435 1.63,11.325 0.47,3.19 0.67,6.425 0.2,9.75 -1.86,-6.465 -3.721,-12.935 -5.76,-20.05 -9.011,3.79 -17.471,7.35 -25.923,10.905 -0.12,-0.23 -0.24,-0.465 -0.36,-0.7 7.873,-4.715 15.753,-9.43 24.203,-14.49 -2.92,-5.375 -5.5,-10.145 -8.091,-14.91 0.33,-0.24 0.66,-0.48 0.98,-0.72 3.41,4.495 6.81,8.985 10.4,13.725 3.859,-2.29 7.97,-4.73 12.51,-7.425 -3.431,-6.25 -6.69,-12.185 -9.95,-18.12 0.32,-0.255 0.64,-0.515 0.95,-0.77 4.149,5.335 8.29,10.67 12.85,16.535 3.46,-2 7.41,-4.29 11.88,-6.875 -2.859,-5.365 -5.609,-10.53 -8.37,-15.7 0.381,-0.275 0.761,-0.55 1.131,-0.825 3.63,4.67 7.26,9.345 11.04,14.22 3.39,-1.995 7.079,-3.92 10.5,-6.255 2.529,-1.735 4.21,-1.635 6.329,0.7 1.87,2.06 4.381,3.545 7.351,5.855 -7.89,3.45 -14.12,6.17 -20.27,8.86 z"
         inkscape:connector-curvature="0"
         style="clip-rule:evenodd;fill:#f8f8ff;fill-opacity:1;fill-rule:evenodd;stroke:#000000;stroke-width:7.78340673;stroke-miterlimit:4;stroke-dasharray:none;stroke-opacity:1" />
      <path
         id="path819"
         d="m 449.048,205.932 c -11.52,0 -23.329,0 -35.47,0 0,-8.555 0,-16.82 0,-25.84 6.62,0 13.21,0 19.8,0 2.5,0.005 5.021,-0.185 7.5,0.065 4.71,0.47 8.41,-0.085 9.44,-5.81 0.33,-1.815 1.84,-3.545 3.12,-5.04 4.13,-4.805 9.55,-4.81 13.77,-0.165 8.8,9.685 8.78,33.985 -0.029,43.55 -4.33,4.69 -9.54,4.685 -13.75,-0.22 -1.601,-1.875 -2.781,-4.125 -4.381,-6.54 z"
         inkscape:connector-curvature="0"
         style="clip-rule:evenodd;fill:#f8f8ff;fill-opacity:1;fill-rule:evenodd;stroke:#000000;stroke-width:7.78340673;stroke-miterlimit:4;stroke-dasharray:none;stroke-opacity:1" />
    </g>
    <g
       aria-label="Cine Hammer"
       style="font-style:normal;font-weight:normal;font-size:10.58333302px;line-height:1.25;font-family:sans-serif;letter-spacing:0px;word-spacing:0px;fill:#000000;fill-opacity:1;stroke:#000000;stroke-width:0.79374999;stroke-miterlimit:4;stroke-dasharray:none;stroke-opacity:1"
       id="text817">
      <path
         d="m 42.716064,25.594032 q -0.530545,-0.163986 -1.360124,-0.163986 -1.543403,0 -2.50803,0.810286 -1.090028,0.906749 -1.090028,2.614139 0,1.331185 0.858518,2.189702 0.868164,0.848872 2.266873,0.848872 0.95498,0 1.813498,-0.472667 -0.09646,0.395497 -0.327973,1.456586 -0.135048,0.704178 -0.260449,1.466233 -1.080382,0.414789 -2.768479,0.414789 -3.057867,0 -5.228277,-2.054655 -2.353689,-2.237934 -2.353689,-5.826345 0,-3.318316 2.025716,-5.363325 2.160764,-2.180057 5.97104,-2.180057 1.83279,0 2.652723,0.212218 z"
         style="font-style:normal;font-variant:normal;font-weight:normal;font-stretch:normal;font-size:19.75555611px;font-family:'Showcard Gothic';-inkscape-font-specification:'Showcard Gothic';opacity:0.98999999;fill:#f8f8ff;fill-opacity:1;stroke:#000000;stroke-width:0.79374999;stroke-miterlimit:4;stroke-dasharray:none;stroke-opacity:1"
         id="path867"
         inkscape:connector-curvature="0" />
      <path
         d="m 50.240152,19.52653 -0.376204,7.881 q -0.106109,2.546615 -0.250803,6.935667 H 44.201589 L 43.545643,19.52653 Z"
         style="font-style:normal;font-variant:normal;font-weight:normal;font-stretch:normal;font-size:19.75555611px;font-family:'Showcard Gothic';-inkscape-font-specification:'Showcard Gothic';opacity:0.98999999;fill:#f8f8ff;fill-opacity:1;stroke:#000000;stroke-width:0.79374999;stroke-miterlimit:4;stroke-dasharray:none;stroke-opacity:1"
         id="path869"
         inkscape:connector-curvature="0" />
      <path
         d="m 62.886409,19.52653 q -0.135048,1.948546 -0.376205,6.800618 -0.144694,3.569119 -0.241157,8.208974 -1.263661,-0.993565 -3.84886,-2.961404 -1.118967,-0.781348 -3.337609,-2.344043 l -0.09646,5.112522 H 51.88002 Q 51.80285,32.385005 51.523108,26.954156 51.281952,22.555458 51.031149,19.52653 h 4.842426 l 3.588412,3.395486 q 0,-1.167198 -0.03858,-1.832791 -0.02894,-0.588422 -0.115756,-1.562695 z"
         style="font-style:normal;font-variant:normal;font-weight:normal;font-stretch:normal;font-size:19.75555611px;font-family:'Showcard Gothic';-inkscape-font-specification:'Showcard Gothic';opacity:0.98999999;fill:#f8f8ff;fill-opacity:1;stroke:#000000;stroke-width:0.79374999;stroke-miterlimit:4;stroke-dasharray:none;stroke-opacity:1"
         id="path871"
         inkscape:connector-curvature="0" />
      <path
         d="m 73.825276,19.52653 -0.41479,6.106087 q -0.356912,-0.05788 -1.543402,-0.202571 -0.810287,-0.07717 -1.774914,-0.09646 l -0.144694,1.842437 q 1.06109,0.02894 3.46301,-0.04823 -0.106109,0.356912 -0.337619,1.331185 -0.135048,0.588422 -0.241157,1.360123 -0.279741,-0.06752 -1.398709,-0.173632 -0.520898,-0.02894 -1.543402,-0.01929 l -0.09646,2.151118 q 0.72347,-0.0096 2.66237,-0.125402 0.366558,-0.02894 1.205783,-0.23151 -0.07717,0.299034 -0.356912,1.437294 -0.135047,0.588422 -0.327973,1.485525 H 64.342998 L 64.063256,26.78053 q -0.07717,-2.594846 -0.376204,-7.253993 z"
         style="font-style:normal;font-variant:normal;font-weight:normal;font-stretch:normal;font-size:19.75555611px;font-family:'Showcard Gothic';-inkscape-font-specification:'Showcard Gothic';opacity:0.98999999;fill:#f8f8ff;fill-opacity:1;stroke:#000000;stroke-width:0.79374999;stroke-miterlimit:4;stroke-dasharray:none;stroke-opacity:1"
         id="path873"
         inkscape:connector-curvature="0" />
      <path
         d="m 93.194983,19.52653 q -0.163986,2.372982 -0.434082,7.72666 -0.07717,2.546615 -0.270095,7.090007 h -4.919597 l -0.106108,-3.241146 q -0.173633,0.05788 -0.704178,0.279742 -0.627007,0.270095 -0.887457,0.434082 L 85.37186,30.629384 q -0.15434,-0.385851 -0.511252,-1.090028 l -0.09646,4.803841 H 79.333297 L 79.053555,27.25319 q -0.08682,-2.768479 -0.434082,-7.72666 h 6.77168 l -0.453375,9.125369 q 0.704178,0.06752 1.350478,0.03859 0.414789,-0.0096 1.118967,-0.07717 l -0.49196,-9.086784 z"
         style="font-style:normal;font-variant:normal;font-weight:normal;font-stretch:normal;font-size:19.75555611px;font-family:'Showcard Gothic';-inkscape-font-specification:'Showcard Gothic';opacity:0.98999999;fill:#f8f8ff;fill-opacity:1;stroke:#000000;stroke-width:0.79374999;stroke-miterlimit:4;stroke-dasharray:none;stroke-opacity:1"
         id="path875"
         inkscape:connector-curvature="0" />
      <path
         d="m 105.77372,34.343197 h -5.27651 l -0.35691,-1.282954 q -0.221869,0.08682 -1.109325,0.588423 -0.56913,0.366558 -1.263661,0.974273 L 97.217476,33.45574 Q 97.05349,33.108475 96.744809,32.481467 l -0.520898,1.86173 h -2.797418 q 0.617361,-2.382628 1.909961,-7.861708 0.790994,-3.665582 1.321539,-6.954959 h 5.797407 q 0.2701,1.514464 1.47588,7.051421 0.66559,2.893881 1.84244,7.765246 z m -6.086799,-3.163976 q -0.163987,-0.511252 -0.578776,-1.659158 -0.250803,-0.636654 -0.762055,-1.755621 -0.221865,0.559484 -0.694532,1.832791 -0.260449,0.733117 -0.617361,1.996778 0.289388,0 1.311893,-0.115756 0.617361,-0.08682 1.340831,-0.299034 z"
         style="font-style:normal;font-variant:normal;font-weight:normal;font-stretch:normal;font-size:19.75555611px;font-family:'Showcard Gothic';-inkscape-font-specification:'Showcard Gothic';opacity:0.98999999;fill:#f8f8ff;fill-opacity:1;stroke:#000000;stroke-width:0.79374999;stroke-miterlimit:4;stroke-dasharray:none;stroke-opacity:1"
         id="path877"
         inkscape:connector-curvature="0" />
      <path
         d="m 121.71899,19.52653 q -0.13505,2.025716 -0.3955,7.389041 -0.13504,3.299023 -0.20257,7.427626 h -3.49195 l -0.0965,-4.543392 -3.40513,4.900304 -3.67523,-4.861719 -0.0965,4.504807 h -3.47266 q -0.0675,-2.208995 -0.26045,-7.466211 -0.13504,-3.028928 -0.49196,-7.350456 h 5.52731 q 0.28939,0.704177 0.99357,2.276519 0.54019,1.118967 1.47588,2.643077 0.41479,-0.655946 1.52411,-2.710601 0.3955,-0.762055 1.01286,-2.208995 z"
         style="font-style:normal;font-variant:normal;font-weight:normal;font-stretch:normal;font-size:19.75555611px;font-family:'Showcard Gothic';-inkscape-font-specification:'Showcard Gothic';opacity:0.98999999;fill:#f8f8ff;fill-opacity:1;stroke:#000000;stroke-width:0.79374999;stroke-miterlimit:4;stroke-dasharray:none;stroke-opacity:1"
         id="path879"
         inkscape:connector-curvature="0" />
      <path
         d="m 138.11765,19.52653 q -0.13505,2.025716 -0.3955,7.389041 -0.13504,3.299023 -0.20257,7.427626 h -3.49195 l -0.0965,-4.543392 -3.40513,4.900304 -3.67523,-4.861719 -0.0965,4.504807 h -3.47266 q -0.0675,-2.208995 -0.26045,-7.466211 -0.13505,-3.028928 -0.49196,-7.350456 h 5.52731 q 0.28939,0.704177 0.99357,2.276519 0.54019,1.118967 1.47588,2.643077 0.41479,-0.655946 1.52411,-2.710601 0.3955,-0.762055 1.01286,-2.208995 z"
         style="font-style:normal;font-variant:normal;font-weight:normal;font-stretch:normal;font-size:19.75555611px;font-family:'Showcard Gothic';-inkscape-font-specification:'Showcard Gothic';opacity:0.98999999;fill:#f8f8ff;fill-opacity:1;stroke:#000000;stroke-width:0.79374999;stroke-miterlimit:4;stroke-dasharray:none;stroke-opacity:1"
         id="path881"
         inkscape:connector-curvature="0" />
      <path
         d="m 149.06616,19.52653 -0.41479,6.106087 q -0.35691,-0.05788 -1.5434,-0.202571 -0.81029,-0.07717 -1.77491,-0.09646 l -0.1447,1.842437 q 1.06109,0.02894 3.46301,-0.04823 -0.10611,0.356912 -0.33762,1.331185 -0.13505,0.588422 -0.24115,1.360123 -0.27975,-0.06752 -1.39871,-0.173632 -0.5209,-0.02894 -1.54341,-0.01929 l -0.0965,2.151118 q 0.72347,-0.0096 2.66237,-0.125402 0.36656,-0.02894 1.20578,-0.23151 -0.0772,0.299034 -0.35691,1.437294 -0.13505,0.588422 -0.32797,1.485525 h -8.63341 L 139.3041,26.78053 q -0.0772,-2.594846 -0.37621,-7.253993 z"
         style="font-style:normal;font-variant:normal;font-weight:normal;font-stretch:normal;font-size:19.75555611px;font-family:'Showcard Gothic';-inkscape-font-specification:'Showcard Gothic';opacity:0.98999999;fill:#f8f8ff;fill-opacity:1;stroke:#000000;stroke-width:0.79374999;stroke-miterlimit:4;stroke-dasharray:none;stroke-opacity:1"
         id="path883"
         inkscape:connector-curvature="0" />
      <path
         d="m 162.84103,25.073134 q 0,1.774913 -0.99356,3.144683 -0.87781,1.196137 -2.19935,1.717036 0.27974,0.434082 1.37941,1.823144 0.54984,0.636654 1.67845,1.678451 -0.45337,0.163986 -1.99677,0.829579 -1.08039,0.491959 -2.03537,0.964626 -0.27974,-0.347265 -1.24436,-1.794205 -0.44373,-0.733117 -1.30225,-2.469445 h -0.0193 l -0.0965,3.376194 h -5.43084 q -0.10611,-2.102886 -0.29904,-6.935667 -0.0868,-2.845649 -0.3955,-7.881 2.65273,-0.279742 4.84243,-0.279742 8.11251,0 8.11251,5.826346 z m -4.3794,2.083593 q 0,-0.916395 -0.77171,-1.311892 -0.56913,-0.289388 -1.42764,-0.250803 l -0.0579,3.299024 q 0.80064,0 1.42765,-0.356912 0.82958,-0.463021 0.82958,-1.379417 z"
         style="font-style:normal;font-variant:normal;font-weight:normal;font-stretch:normal;font-size:19.75555611px;font-family:'Showcard Gothic';-inkscape-font-specification:'Showcard Gothic';opacity:0.98999999;fill:#f8f8ff;fill-opacity:1;stroke:#000000;stroke-width:0.79374999;stroke-miterlimit:4;stroke-dasharray:none;stroke-opacity:1"
         id="path885"
         inkscape:connector-curvature="0" />
    </g>
  </g>
</svg>
